<!--?xml version="1.0" encoding="utf-8"?-->
<!-- Generator: Adobe Illustrator 18.1.1, SVG Export Plug-In . SVG Version: 6.00 Build 0)  -->

<svg version="1.1" id="_x31_0" xmlns="http://www.w3.org/2000/svg" xmlns:xlink="http://www.w3.org/1999/xlink" x="0px" y="0px" viewBox="0 0 512 512" style="width: 256px; height: 256px; opacity: 1;" xml:space="preserve">
<style type="text/css">
	.st0{fill:#374149;}
</style>
<g>
	<path class="st0" d="M444.51,253.4c-1.426-3.094-4.528-4.973-7.821-4.985c-0.012,0-0.023-0.008-0.031-0.008
		c-0.012,0-0.023,0.008-0.031,0.008c-2.004,0.004-4.043,0.629-5.762,2.203l-50.857,46.56V406.2c0,4.782-3.875,8.661-8.657,8.661
		H74.022c-4.782,0-8.661-3.879-8.661-8.661V264.377v-10.078v-86.244v-31.681V108.87c0-4.782,3.879-8.657,8.661-8.657h270.065
		c2.164,0,4.25-0.813,5.843-2.27l52.431-47.962c5.828-5.332,2.054-15.047-5.844-15.047H8.66c-4.781,0-8.66,3.875-8.66,8.657v427.97
		c0,4.786,3.879,8.661,8.66,8.661h428.053c4.782,0,8.657-3.875,8.657-8.661V257.006c0-1.328-0.352-2.489-0.84-3.562
		C444.526,253.428,444.518,253.416,444.51,253.4z" style="fill: rgb(75, 75, 75);"></path>
	<path class="st0" d="M494.64,33.34c-0.426-0.492-0.801-1.019-1.238-1.504l-0.003,0.004c-0.016-0.019-0.032-0.043-0.051-0.062
		L238.545,264.963l-47.962-51.333c-25.294-27.079-66.74-29.993-95.498-7.813c-1.774,1.355-3.492,2.805-5.145,4.336v0.004
		c-0.019,0.015-0.038,0.031-0.058,0.05l119.734,128.155c7.238,7.75,17.031,11.598,26.871,11.649c0.062,0,0.122,0.02,0.184,0.02
		h0.004c0.274,0,0.535-0.07,0.805-0.074c1.976-0.043,3.941-0.191,5.894-0.551c0.27-0.046,0.527-0.144,0.797-0.199
		c1.988-0.41,3.954-0.934,5.867-1.675c0.024-0.008,0.047-0.024,0.07-0.031c4.137-1.618,8.078-3.922,11.547-7.102L488.89,132.444
		C517.414,106.338,519.77,62.4,494.64,33.34z" style="fill: rgb(75, 75, 75);"></path>
</g>
</svg>
